HIERARCHY
ROOT Hips
{
	OFFSET 0.000000 0.000000 0.000000 
	CHANNELS 6 Xposition Yposition Zposition Zrotation Xrotation Yrotation
	JOINT Spine
	{
		OFFSET -0.000000 8.339920 0.000000 
		CHANNELS 3 Zrotation Xrotation Yrotation
		JOINT Spine1
		{
			OFFSET -0.000000 25.214485 0.000000 
			CHANNELS 3 Zrotation Xrotation Yrotation
			JOINT Neck
			{
				OFFSET -0.000000 25.110935 2.282812 
				CHANNELS 3 Zrotation Xrotation Yrotation
				JOINT Head
				{
					OFFSET -0.000000 14.238888 -2.034127 
					CHANNELS 3 Zrotation Xrotation Yrotation
					End Site
					{
						OFFSET -0.000000 25.426584 0.000000 
					}
				}
			}
			JOINT LeftShoulder
			{
				OFFSET 4.025024 23.158985 -0.185822 
				CHANNELS 3 Zrotation Xrotation Yrotation
				JOINT LeftArm
				{
					OFFSET 11.674057 0.000000 0.000000 
					CHANNELS 3 Zrotation Xrotation Yrotation
					JOINT LeftForeArm
					{
						OFFSET 31.688633 0.000000 0.000000 
						CHANNELS 3 Zrotation Xrotation Yrotation
						JOINT LeftHand
						{
							OFFSET 29.704493 0.000000 0.000000 
							CHANNELS 3 Zrotation Xrotation Yrotation
							End Site
							{
								OFFSET 15.255952 0.000000 0.000000 
							}
						}
					}
				}
			}
			JOINT RightShoulder
			{
				OFFSET -4.099539 23.158985 -0.185822 
				CHANNELS 3 Zrotation Xrotation Yrotation
				JOINT RightArm
				{
					OFFSET -11.674057 0.000000 0.000000 
					CHANNELS 3 Zrotation Xrotation Yrotation
					JOINT RightForeArm
					{
						OFFSET -31.688633 0.000000 0.000000 
						CHANNELS 3 Zrotation Xrotation Yrotation
						JOINT RightHand
						{
							OFFSET -29.704493 0.000000 0.000000 
							CHANNELS 3 Zrotation Xrotation Yrotation
							End Site
							{
								OFFSET -15.255952 0.000000 0.000000 
							}
						}
					}
				}
			}
		}
	}
	JOINT LeftUpLeg
	{
		OFFSET 10.170634 0.000000 0.000000 
		CHANNELS 3 Zrotation Xrotation Yrotation
		JOINT LeftLeg
		{
			OFFSET -0.000000 -41.352962 0.000000 
			CHANNELS 3 Zrotation Xrotation Yrotation
			JOINT LeftFoot
			{
				OFFSET -0.000000 -47.535004 0.000000 
				CHANNELS 3 Zrotation Xrotation Yrotation
				JOINT LeftToeBase
				{
					OFFSET -0.000000 -6.610912 15.255952 
					CHANNELS 3 Zrotation Xrotation Yrotation
					End Site
					{
						OFFSET -0.000000 0.000000 4.068254 
					}
				}
			}
		}
	}
	JOINT RightUpLeg
	{
		OFFSET -10.170634 0.000000 0.000000 
		CHANNELS 3 Zrotation Xrotation Yrotation
		JOINT RightLeg
		{
			OFFSET -0.000000 -41.352962 0.000000 
			CHANNELS 3 Zrotation Xrotation Yrotation
			JOINT RightFoot
			{
				OFFSET -0.000000 -47.535004 0.000000 
				CHANNELS 3 Zrotation Xrotation Yrotation
				JOINT RightToeBase
				{
					OFFSET -0.000000 -6.610912 15.255952 
					CHANNELS 3 Zrotation Xrotation Yrotation
					End Site
					{
						OFFSET -0.000000 0.000000 4.068254 
					}
				}
			}
		}
	}
}
MOTION
Frames: 12
Frame Time: 0.008333
0.500298 94.252747 0.193737 0.724705 -0.742268 88.924057 0.878150 -11.126354 -1.231049 4.365752 11.992656 -1.775392 -11.676744 23.092245 -4.653844 6.483035 -8.085082 -4.245563 4.564807 6.144018 -1.160015 -75.529434 40.031418 4.144813 30.677462 -22.917067 -51.314335 -14.109056 -9.551770 9.907548 -16.555906 0.462007 -5.880109 74.980904 51.497044 8.091459 -3.171706 -8.517612 13.635975 -4.939023 -8.350254 4.872305 1.575132 9.369089 4.448885 -1.357975 -1.448119 7.140534 -2.868208 -6.319925 5.652421 0.000000 0.000000 0.000000 2.484087 6.749501 1.028267 -2.592878 1.791347 -0.815720 0.310331 -7.232528 -7.128886 0.000000 0.000000 0.000000 
0.465408 94.252670 0.158360 0.717020 -0.701819 89.154121 0.875402 -11.164921 -1.270207 4.203242 12.049903 -1.799607 -11.510367 23.070673 -4.630746 6.470749 -8.237267 -4.202214 4.393993 6.257668 -1.285568 -75.426208 40.802479 3.721314 29.136391 -22.637144 -48.509327 -13.075410 -10.735451 8.958832 -16.584429 0.429735 -5.933772 74.864502 50.890919 8.031978 -3.293964 -8.462976 13.669303 -5.417316 -8.293398 4.724543 1.532129 9.279778 4.399928 -1.329920 -1.401431 7.045214 -2.837959 -6.317289 5.589420 0.000000 0.000000 0.000000 2.453372 6.716925 0.923677 -2.597157 1.829738 -0.930219 0.336419 -7.267935 -7.137891 0.000000 0.000000 0.000000 
0.442928 94.249023 0.135468 0.727430 -0.703299 89.362152 0.900710 -11.175437 -1.284726 4.032881 12.063586 -1.799199 -11.302638 23.072180 -4.665337 6.495929 -8.284446 -4.216696 4.329698 6.305183 -1.451325 -75.431709 41.373947 3.454654 27.534676 -22.451834 -45.872578 -12.707382 -11.903852 7.756406 -16.588686 0.413689 -5.994757 74.716042 50.204811 7.902075 -3.463709 -8.176531 13.699227 -5.145414 -7.988203 5.029215 1.552759 9.234582 4.412549 -1.334653 -1.365561 6.851688 -2.828536 -6.338547 5.564036 0.000000 0.000000 0.000000 2.467180 6.707698 0.785806 -2.600196 1.877537 -0.929065 0.336058 -7.305748 -7.204689 0.000000 0.000000 0.000000 
0.412666 94.248199 0.116135 0.725282 -0.701478 89.582062 0.941984 -11.152886 -1.304342 3.788810 11.994417 -1.794510 -10.986321 23.166563 -4.666914 6.463091 -8.383749 -4.209148 4.300979 6.477402 -1.662575 -75.358322 41.838619 3.214861 25.879307 -22.488237 -43.597763 -11.623528 -13.121070 6.949585 -16.517212 0.421545 -6.008914 74.524628 49.557297 7.762676 -3.520456 -8.161671 13.742029 -5.650532 -7.988531 5.054907 1.578777 9.161854 4.403901 -1.342875 -1.333916 6.751144 -2.826509 -6.344844 5.457356 0.000000 0.000000 0.000000 2.486648 6.685017 0.636734 -2.616321 1.915049 -0.953446 0.363747 -7.326374 -7.234756 0.000000 0.000000 0.000000 
0.423588 94.264267 0.096981 0.739977 -0.641762 89.625816 0.926765 -11.153565 -1.234874 3.548013 11.896463 -1.695210 -10.647586 23.327330 -4.669277 6.422887 -8.380653 -4.214520 4.289118 6.459730 -1.807388 -75.417709 42.294548 3.257783 24.305599 -22.478567 -41.439018 -10.913948 -14.185858 6.374044 -16.348011 0.554675 -5.970668 74.176338 48.984249 7.649997 -3.833051 -7.761600 13.787835 -4.983104 -7.533793 5.371486 1.518243 9.197150 4.607418 -1.360729 -1.369735 6.566800 -2.838826 -6.226470 5.396234 0.000000 0.000000 0.000000 2.427502 6.712244 0.663879 -2.625782 1.914925 -1.010027 0.379822 -7.318632 -7.260376 0.000000 0.000000 0.000000 
0.411987 94.272820 0.082569 0.743080 -0.620713 89.758804 0.954739 -11.099054 -1.189821 3.281680 11.745122 -1.620290 -10.275954 23.369320 -4.669974 6.354341 -8.210779 -4.217758 4.386253 6.433632 -1.984533 -75.534744 42.585930 3.324261 22.854782 -22.506390 -39.374886 -10.628310 -15.151278 5.636531 -16.190071 0.612870 -6.032332 73.884262 48.483540 7.432237 -3.810438 -7.901257 14.083997 -6.142263 -7.685483 4.716911 1.518869 9.180268 4.652658 -1.377592 -1.384637 6.432591 -2.850317 -6.163510 5.339490 0.000000 0.000000 0.000000 2.412119 6.708497 0.635503 -2.620446 1.935456 -1.025476 0.374749 -7.310382 -7.341054 0.000000 0.000000 0.000000 
0.397228 94.286499 0.074280 0.712017 -0.584056 89.827164 0.901367 -11.124539 -1.178564 3.179647 11.659800 -1.591105 -10.192104 23.488306 -4.672664 6.505884 -8.144760 -4.198170 4.389947 6.473209 -2.077208 -75.526413 42.740273 3.319000 21.467514 -22.475527 -37.425785 -10.146457 -15.960210 5.220048 -16.227356 0.630174 -5.967078 73.673546 48.026890 7.239617 -4.126873 -7.804709 14.107946 -5.408959 -7.534612 5.045323 1.503444 9.151695 4.663404 -1.404850 -1.429065 6.419418 -2.868113 -6.059822 5.263606 0.000000 0.000000 0.000000 2.386039 6.681878 0.689681 -2.634994 1.927106 -1.126676 0.415091 -7.289881 -7.357123 0.000000 0.000000 0.000000 
0.355915 94.302353 0.065166 0.678313 -0.571990 89.993469 0.903017 -11.056937 -1.188144 2.985802 11.443813 -1.574876 -9.982774 23.436117 -4.671134 6.530081 -7.690916 -4.196677 4.481220 6.504646 -2.175410 -75.494476 42.762657 3.285951 20.193298 -22.392731 -35.600784 -9.880070 -16.631594 5.124885 -16.112776 0.673683 -5.944562 73.366211 47.383438 7.045928 -4.042244 -7.719338 14.316120 -6.481544 -7.474970 4.614852 1.523682 9.045707 4.599343 -1.416904 -1.391616 6.372680 -2.881958 -5.995611 5.189629 0.000000 0.000000 0.000000 2.389380 6.624974 0.595214 -2.637410 1.950644 -1.156160 0.431392 -7.253649 -7.394347 0.000000 0.000000 0.000000 
0.349365 94.317802 0.052799 0.712963 -0.552316 90.082977 0.905031 -10.966494 -1.168257 2.824438 11.272218 -1.534005 -9.884511 23.656086 -4.693145 6.717942 -7.685740 -4.195457 4.564482 6.550795 -2.228286 -75.344589 42.746342 3.091618 19.047346 -22.000200 -33.541264 -9.810284 -16.922541 4.785693 -16.074211 0.699113 -5.905381 73.065094 47.189240 6.788343 -4.364384 -7.709130 14.408209 -5.455568 -7.400390 5.046777 1.516618 9.073315 4.586439 -1.424832 -1.410491 6.284986 -2.890845 -5.911544 5.185492 0.000000 0.000000 0.000000 2.376938 6.681126 0.527916 -2.647395 1.910674 -1.177068 0.471968 -7.202526 -7.394730 0.000000 0.000000 0.000000 
0.333691 94.333626 0.044357 0.713755 -0.536397 90.134956 0.892134 -10.899613 -1.136391 2.712362 11.091326 -1.484931 -9.825364 23.752922 -4.680901 6.850197 -7.437881 -4.174730 4.641418 6.584203 -2.239237 -75.156387 42.634350 2.904064 17.752880 -21.709845 -31.709377 -9.312830 -17.288160 4.831860 -16.069740 0.723049 -5.872755 72.756210 47.018131 6.567369 -4.398705 -7.955120 14.596052 -6.703500 -7.658435 4.510059 1.504246 9.071295 4.574223 -1.423858 -1.442612 6.320073 -2.929625 -5.822614 5.106253 0.000000 0.000000 0.000000 2.354648 6.683373 0.530238 -2.634418 1.896195 -1.204155 0.483471 -7.153347 -7.414477 0.000000 0.000000 0.000000 
0.319405 94.349083 0.039310 0.727177 -0.528303 90.170967 0.873652 -10.817074 -1.103183 2.641865 10.902109 -1.438088 -9.834976 23.867136 -4.626320 7.004287 -7.188684 -4.112737 4.713975 6.601698 -2.198645 -74.933586 42.520832 2.694887 16.648546 -21.332912 -29.806259 -9.301938 -17.492823 4.815604 -16.102041 0.739490 -5.836104 72.470276 46.671707 6.324408 -4.613554 -8.096407 14.730425 -6.366323 -7.750742 4.453652 1.499767 9.082848 4.565084 -1.421031 -1.472921 6.301719 -2.968133 -5.736593 5.078225 0.000000 0.000000 0.000000 2.344218 6.702195 0.491548 -2.629406 1.875537 -1.199647 0.495795 -7.100368 -7.419096 0.000000 0.000000 0.000000 
0.303493 94.365417 0.034161 0.735517 -0.516966 90.193558 0.847831 -10.732953 -1.067838 2.588375 10.699608 -1.389904 -9.788831 24.008621 -4.594220 7.023461 -6.979835 -4.098154 4.795527 6.589376 -2.144583 -74.723427 42.465111 2.482255 15.618383 -20.928154 -27.808977 -9.661905 -17.629101 4.687785 -16.106991 0.751878 -5.775540 72.143120 46.361923 6.100930 -4.721525 -8.147691 14.770893 -5.932221 -7.779825 4.649170 1.490741 9.096470 4.489240 -1.418308 -1.519755 6.430841 -3.005227 -5.634754 4.982197 0.000000 0.000000 0.000000 2.325438 6.717984 0.468634 -2.618906 1.840765 -1.218876 0.534190 -7.037519 -7.392144 0.000000 0.000000 0.000000 
